# xmcd
#
# Track frame offsets:
#	150
#	15998
#	35519
#	47649
#	62316
#	79081
#	95089
#	110730
#	127388
#	140780
#	156628
#	176149
#	188279
#	202946
#	219711
#	235719
#	251360
#	268018
#
# Disc length: 3752 seconds
#
# Revision: 2
# Processed by: cddbd v1.5.2PL0 Copyright (c) Steve Scherf et al.
# Submitted via: audiograbber 1.83.01
#
DISCID=020ea612
DTITLE=Various Artist - PHMC2110308
DYEAR=2011
DGENRE=Country
TTITLE0=Darius Rucker - I Got Nothin'
TTITLE1=Hunter Hayes - Storm Warning
TTITLE2=Deborah Allen - Anything Other Than Love
TTITLE3=Phil Vassar - Let's Get Together
TTITLE4=Emmylou Harris - Home Sweet Home
TTITLE5=Corey Smith - Twenty-One (2011)
TTITLE6=Donnie and Marie Osmond - The Good Life
TTITLE7=Mark Wills - Looking For America
TTITLE8=Shawna Russell - Get Right Or Get Left
TTITLE9=Darius Rucker - I Got Nothin' w/ Vocals
TTITLE10=Hunter Hayes - Storm Warning w/ vocals
TTITLE11=Deborah Allen - Anything Other Than Love w/ vocals
TTITLE12=Phil Vassar - Let's Get Together w/ vocals
TTITLE13=Emmylou Harris - Home Sweet Home w/ vocals
TTITLE14=Corey Smith - Twenty-One (2011) w/ vocals
TTITLE15=Donnie and Marie Osmond - The Good Life w/ vocals
TTITLE16=Mark Wills - Looking For America w/ vocals
TTITLE17=Shawna Russell - Get Right Or Get Left w/ vocals
EXTD=CURRENT LISTING IS NOT COMPLETE ON FREED DB - THIS IS A COMPLETE LISTING A
EXTD=ND ACCURATE
EXTT0=
EXTT1=
EXTT2=
EXTT3=
EXTT4=
EXTT5=
EXTT6=
EXTT7=
EXTT8=
EXTT9=
EXTT10=
EXTT11=
EXTT12=
EXTT13=
EXTT14=
EXTT15=
EXTT16=
EXTT17=
PLAYORDER=
